<svg width="225" height="41" viewBox="0 0 225 41" fill="none" xmlns="http://www.w3.org/2000/svg">
<path d="M29.8603 34.9429C24.7992 30.923 19.7589 26.917 14.7137 22.9149C13.7399 22.1424 13.3458 21.2387 13.8111 20.1931C13.9859 19.8002 14.3141 19.4158 14.687 19.118C19.9387 14.9236 25.2071 10.7424 30.4787 6.56373C31.8971 5.43933 33.7874 5.44741 35.2108 6.56908C36.4357 7.53434 37.6509 8.50739 38.8699 9.47743C38.8873 9.49128 38.8976 9.51071 38.9342 9.55578C35.0667 12.9547 31.1919 16.3601 27.2971 19.7831C31.6927 23.607 36.0698 27.4149 40.4626 31.2363C40.3905 31.3036 40.3321 31.3666 40.2633 31.4213C38.5774 32.7616 36.8913 34.1016 35.2033 35.4402C34.6701 35.863 34.0522 36.1535 33.2878 36.234C32.2168 36.3468 31.3186 36.0764 30.553 35.4916C30.3244 35.3171 30.1037 35.136 29.8603 34.9429ZM26.8582 18.1129C28.7574 16.4609 30.6567 14.809 32.6132 13.1072C31.9757 13.1072 31.4437 13.1056 30.9116 13.1075C29.5421 13.1125 28.1726 13.1189 26.7563 13.1586C26.7463 13.1975 26.7276 13.2364 26.7275 13.2752C26.7258 14.8226 26.7247 16.3699 26.7295 17.9173C26.7297 17.9881 26.785 18.0588 26.8582 18.1129ZM26.7604 20.5379C26.7489 20.5865 26.7274 20.6351 26.7274 20.6837C26.7256 22.5035 26.7249 24.3234 26.729 26.1433C26.7292 26.2168 26.7781 26.2903 26.874 26.3759C29.0734 26.3759 31.2727 26.3759 33.5408 26.3759C33.4044 26.2456 33.322 26.1603 33.2312 26.0809C31.9003 24.9175 30.5708 23.753 29.2356 22.5928C28.4323 21.8949 27.6196 21.2038 26.7604 20.5379ZM30.428 27.8009C30.9686 27.8154 31.5092 27.831 32.0498 27.8437C32.2269 27.8479 32.4043 27.8444 32.6318 27.8444C32.5635 27.9224 32.5542 27.9425 32.536 27.9526C31.9636 28.2677 31.3903 28.5819 30.8174 28.8964C30.3343 29.1616 30.3155 29.2031 30.4551 29.6946C31.585 29.6946 32.7157 29.6946 33.8416 29.6946C33.8416 29.5118 33.8416 29.3556 33.8416 29.1607C33.1078 29.1607 32.3979 29.1607 31.688 29.1607C32.2471 28.7792 32.8083 28.4372 33.413 28.1539C33.8514 27.9485 33.9576 27.6924 33.8239 27.3149C32.6983 27.3149 31.5662 27.3149 30.4059 27.3149C30.4059 27.4739 30.4059 27.6129 30.428 27.8009ZM27.5245 27.7958C27.5245 27.6394 27.5245 27.483 27.5245 27.3261C27.2682 27.3261 27.0707 27.3261 26.8603 27.3261C26.8603 27.9142 26.833 28.4855 26.8704 29.0542C26.8934 29.4035 27.2867 29.6837 27.7342 29.7023C28.2771 29.7248 28.8235 29.7247 29.3667 29.7045C29.8317 29.6872 30.2374 29.4088 30.2645 29.0447C30.3066 28.4775 30.2756 27.9068 30.2756 27.3317C30.0407 27.3317 29.835 27.3317 29.6092 27.3317C29.6092 27.8176 29.611 28.2798 29.6086 28.7419C29.6068 29.1119 29.5386 29.1678 29.0876 29.1711C28.7455 29.1736 28.4034 29.1731 28.0613 29.1712C27.5807 29.1686 27.5276 29.1248 27.525 28.7293C27.5231 28.4375 27.5245 28.1457 27.5245 27.7958Z" fill="white"/>
<path d="M114.799 23.3605C112.583 21.3841 110.386 19.4234 108.123 17.4045C108.123 21.4066 108.123 25.3296 108.123 29.266C106.558 29.266 105.03 29.266 103.482 29.266C103.482 23.7524 103.482 18.2538 103.482 12.7068C103.602 12.7068 103.722 12.7068 103.842 12.7068C105.479 12.7068 107.116 12.7008 108.753 12.7152C108.938 12.7168 109.176 12.7946 109.298 12.9025C113.545 16.6723 117.78 20.45 122.017 24.2264C122.132 24.3282 122.249 24.4279 122.43 24.585C122.43 20.585 122.43 16.6624 122.43 12.7233C123.995 12.7233 125.523 12.7233 127.072 12.7233C127.072 18.2348 127.072 23.7333 127.072 29.281C126.958 29.281 126.838 29.281 126.718 29.281C125.069 29.281 123.419 29.2871 121.769 29.2727C121.585 29.2711 121.348 29.1919 121.227 29.0842C119.082 27.1875 116.951 25.2808 114.799 23.3605Z" fill="white"/>
<path d="M173.106 22.7978C173.116 21.1154 173.089 19.4625 173.147 17.8114C173.234 15.317 175.934 13.0667 179.078 12.8187C179.494 12.7859 179.913 12.7693 180.331 12.7688C183.465 12.7647 186.598 12.7531 189.732 12.7705C192.686 12.7869 194.831 13.8613 196.143 15.9666C196.517 16.5687 196.733 17.2158 196.739 17.8862C196.757 19.9817 196.79 22.0782 196.734 24.1729C196.667 26.6319 194.069 28.8862 191.019 29.2111C190.694 29.2458 190.364 29.2755 190.036 29.2757C186.509 29.2774 182.982 29.2979 179.456 29.2621C176.497 29.232 173.603 27.1501 173.227 24.8162C173.121 24.1601 173.143 23.4911 173.106 22.7978ZM181.409 25.5771C183.159 25.5771 184.91 25.5772 186.66 25.5771C187.751 25.577 188.842 25.5869 189.933 25.5737C191.111 25.5594 192.009 24.9387 192.034 24.0126C192.086 22.0594 192.094 20.1042 192.047 18.151C192.021 17.0855 191.155 16.4961 189.799 16.4904C188.404 16.4845 187.008 16.4888 185.613 16.4888C183.748 16.4888 181.883 16.482 180.019 16.4915C178.643 16.4986 177.792 17.183 177.789 18.2716C177.784 20.1354 177.78 21.9992 177.792 23.863C177.798 24.8513 178.682 25.5513 179.924 25.5752C180.394 25.5842 180.863 25.577 181.409 25.5771Z" fill="white"/>
<path d="M81.7558 28.38C79.7533 27.2524 78.7222 25.7418 78.7208 23.8035C78.7195 21.9491 78.7111 20.0947 78.7227 18.2404C78.7419 15.175 81.6552 12.81 85.5118 12.774C88.8613 12.7427 92.2121 12.7446 95.5617 12.7741C98.824 12.8029 101.465 14.5236 102.2 17.051C102.299 17.3911 102.341 17.7486 102.343 18.0982C102.354 20.1036 102.379 22.1096 102.333 24.1144C102.285 26.2037 100.503 28.151 98.0451 28.9065C97.293 29.1377 96.5204 29.2766 95.7114 29.2766C92.2599 29.2766 88.8084 29.2785 85.3569 29.2757C84.0513 29.2747 82.8676 28.9519 81.7558 28.38ZM84.6238 25.4198C84.9441 25.4722 85.264 25.5691 85.5845 25.5702C88.8837 25.5814 92.1831 25.5815 95.4823 25.5749C96.7555 25.5724 97.6568 24.8902 97.6711 23.875C97.6978 21.9806 97.6977 20.0856 97.6718 18.1911C97.6579 17.1791 96.7944 16.4997 95.5291 16.4945C92.2046 16.4807 88.8798 16.4801 85.5552 16.4943C84.2525 16.4999 83.3922 17.204 83.3857 18.2366C83.374 20.101 83.3782 21.9655 83.3845 23.8299C83.3869 24.5352 83.7821 25.064 84.6238 25.4198Z" fill="white"/>
<path d="M149.467 16.4408C149.077 16.4408 148.724 16.4408 148.349 16.4408C148.349 15.1908 148.349 13.9674 148.349 12.7207C148.479 12.7158 148.602 12.7072 148.725 12.7073C153.838 12.7108 158.952 12.7176 164.065 12.7184C166.427 12.7187 168.432 13.3823 170.007 14.7809C173.052 17.4856 172.457 21.4045 169.098 23.5533C168.59 23.8786 168.009 24.132 167.443 24.4279C168.932 26.0182 170.433 27.6228 171.971 29.2659C171.783 29.2726 171.662 29.2805 171.542 29.2806C169.88 29.2814 168.217 29.2767 166.555 29.2855C166.29 29.2869 166.121 29.2326 165.957 29.0547C164.744 27.7381 163.518 26.4289 162.282 25.1257C162.186 25.0247 161.984 24.9298 161.83 24.9292C158.975 24.9175 156.12 24.9205 153.265 24.9212C153.192 24.9212 153.118 24.9298 153.013 24.9365C153.013 26.3744 153.013 27.8019 153.013 29.2553C151.443 29.2553 149.905 29.2553 148.347 29.2553C148.347 26.5882 148.347 23.9227 148.347 21.218C148.499 21.218 148.646 21.218 148.793 21.218C153.881 21.218 158.969 21.216 164.057 21.2194C165.38 21.2203 166.384 20.8011 167.002 19.8557C167.938 18.4238 166.608 16.5576 164.579 16.4537C164.364 16.4427 164.148 16.4413 163.932 16.4413C159.123 16.4406 154.314 16.4408 149.467 16.4408Z" fill="white"/>
<path d="M72.2436 17.0405C71.6761 17.412 71.1292 17.7695 70.5567 18.1438C73.9548 21.8476 77.3397 25.5371 80.76 29.2652C80.5792 29.2724 80.4704 29.2805 80.3616 29.2806C78.6991 29.2813 77.0367 29.2767 75.3743 29.2857C75.1177 29.287 74.9649 29.2219 74.8139 29.0571C72.2769 26.288 69.731 23.5239 67.1868 20.7589C67.1126 20.6783 67.0349 20.5998 66.9356 20.4959C66.3806 20.8586 65.8353 21.2154 65.2893 21.5715C64.2206 22.2684 63.1549 22.9682 62.0794 23.6585C61.8834 23.7843 61.8069 23.9163 61.8081 24.1176C61.8182 25.7201 61.8137 27.3226 61.8136 28.9251C61.8136 29.0332 61.8136 29.1412 61.8136 29.2651C60.2413 29.2651 58.7106 29.2651 57.1523 29.2651C57.1523 23.7541 57.1523 18.2481 57.1523 12.7243C58.6949 12.7243 60.2246 12.7243 61.7964 12.7243C61.7964 14.8054 61.7964 16.8853 61.7964 19.0469C61.9642 18.9441 62.0587 18.8893 62.1491 18.8304C65.1996 16.8432 68.2485 14.8544 71.3043 12.8724C71.4385 12.7854 71.636 12.7143 71.8046 12.7135C74.0634 12.7031 76.3223 12.7066 78.5811 12.7066C78.6404 12.7066 78.6997 12.7066 78.7589 12.7066C78.7725 12.7269 78.786 12.7472 78.7995 12.7675C76.6211 14.1872 74.4427 15.6069 72.2436 17.0405Z" fill="white"/>
<path d="M47.2779 16.151C48.5439 17.1562 49.796 18.1422 51.0362 19.1376C52.1739 20.0508 52.3864 21.2109 51.6126 22.2829C51.4694 22.4812 51.2804 22.6657 51.0766 22.8283C48.7677 24.6704 46.4519 26.507 44.1374 28.3446C44.0936 28.3794 44.0421 28.4079 43.9689 28.456C40.661 25.5802 37.3615 22.7118 34.0353 19.8201C36.8634 17.3411 39.6779 14.874 42.528 12.3757C44.1133 13.6357 45.6861 14.8858 47.2779 16.151Z" fill="white"/>
<path d="M147.556 16.0747C147.556 16.1936 147.556 16.2837 147.556 16.418C145.024 16.418 142.511 16.418 139.965 16.418C139.965 20.721 139.965 24.9799 139.965 29.26C138.406 29.26 136.878 29.26 135.304 29.26C135.304 24.9979 135.304 20.7316 135.304 16.4345C132.753 16.4345 130.247 16.4345 127.716 16.4345C127.716 15.1817 127.716 13.9598 127.716 12.7222C134.322 12.7222 140.914 12.7222 147.556 12.7222C147.556 13.8366 147.556 14.9413 147.556 16.0747Z" fill="white"/>
<path d="M197.751 23.584C197.751 19.9603 197.751 16.3668 197.751 12.7571C199.322 12.7571 200.852 12.7571 202.438 12.7571C202.438 14.8953 202.438 17.0266 202.438 19.1578C202.438 21.2829 202.438 23.408 202.438 25.5664C206.407 25.5664 210.356 25.5664 214.329 25.5664C214.329 26.8127 214.329 28.026 214.329 29.2602C208.816 29.2602 203.307 29.2602 197.751 29.2602C197.751 27.375 197.751 25.4946 197.751 23.584Z" fill="white"/>
<path d="M26.8031 13.1246C28.1726 13.1188 29.5422 13.1123 30.9117 13.1074C31.4437 13.1055 31.9757 13.1071 32.6132 13.1071C30.6567 14.8088 28.7575 16.4608 26.8342 18.094C26.8078 16.4251 26.8055 14.7749 26.8031 13.1246Z" fill="#FBFDFE"/>
<path d="M30.4169 27.7763C30.4059 27.6127 30.4059 27.4737 30.4059 27.3147C31.5662 27.3147 32.6983 27.3147 33.8239 27.3147C33.9576 27.6922 33.8514 27.9483 33.413 28.1537C32.8083 28.437 32.2471 28.779 31.688 29.1605C32.3979 29.1605 33.1078 29.1605 33.8416 29.1605C33.8416 29.3554 33.8416 29.5116 33.8416 29.6944C32.7156 29.6944 31.585 29.6944 30.4551 29.6944C30.3155 29.2029 30.3343 29.1614 30.8174 28.8962C31.3903 28.5817 31.9636 28.2676 32.536 27.9524C32.5541 27.9424 32.5635 27.9222 32.6318 27.8442C32.4043 27.8442 32.2269 27.8477 32.0498 27.8435C31.5091 27.8308 30.9686 27.8152 30.4169 27.7763Z" fill="#EFF7FB"/>
<path d="M26.7857 20.5237C26.8092 22.4422 26.8072 24.3748 26.8047 26.3356C26.7781 26.2902 26.7292 26.2167 26.729 26.1431C26.7249 24.3233 26.7256 22.5034 26.7274 20.6835C26.7274 20.6349 26.7489 20.5864 26.7857 20.5237Z" fill="#295C89"/>
<path d="M25.4647 17.7318C26.2959 16.3255 27.1559 14.9171 28.028 13.4844C28.0286 13.536 28.0388 13.6252 28.002 13.6857C27.1978 15.0077 26.3886 16.3266 25.5789 17.6451C25.5585 17.6783 25.5223 17.7016 25.4647 17.7318Z" fill="#295C89"/>
</svg>
